<?xml version="1.0" encoding="utf-8"?>
<!-- Generator: Adobe Illustrator 14.0.0, SVG Export Plug-In . SVG Version: 6.00 Build 43363)  -->
<!DOCTYPE svg PUBLIC "-//W3C//DTD SVG 1.1//EN" "http://www.w3.org/Graphics/SVG/1.1/DTD/svg11.dtd">
<svg version="1.1" id="Layer_1" xmlns="http://www.w3.org/2000/svg" xmlns:xlink="http://www.w3.org/1999/xlink" x="0px" y="0px"
	 width="400px" height="400px" viewBox="0 0 400 400" enable-background="new 0 0 400 400" xml:space="preserve">
<g>
	<path d="M60.457,117.073H49.371C56.074,91.464,65.097,78.66,76.44,78.66c6.871,0,14.007,4.297,21.398,12.89
		c7.218,8.25,13.316,12.375,18.304,12.375c4.809,0,8.25-3.867,10.312-11.601c2.747-9.965,6.789-14.953,12.117-14.953
		c5.324,0,7.992,2.41,7.992,7.218c0,2.234-4.729,11.516-14.179,27.843c-21.828,37.124-36.053,67.892-42.667,92.293
		c-6.617,24.406-9.925,41.163-9.925,50.272c0,8.765,2.102,16.198,6.316,22.3c4.211,6.102,10.183,9.152,17.917,9.152
		c11.343,0,24.491-5.413,39.444-16.242c14.953-10.827,26.897-21.655,35.834-32.482c-0.516-4.294-0.773-8.852-0.773-13.664
		c0-35.406,7.129-68.705,21.398-99.899c14.265-31.194,29.304-46.792,45.115-46.792c6.531,0,11.387,2.32,14.566,6.96
		c3.18,4.641,4.769,11.602,4.769,20.882c0,15.816-4.424,33.171-13.275,52.077c-8.852,18.91-22.214,39.358-40.089,61.357
		c1.547,21.827,5.887,38.76,13.019,50.787c7.133,12.031,16.026,18.047,26.683,18.047c10.141,0,21.914-5.973,35.319-17.917
		c13.406-11.945,25.395-29.991,35.964-54.14c10.57-24.144,15.855-44.557,15.855-61.228c0-9.965-2.751-20.882-8.25-32.741
		c-4.984-10.656-7.476-19.593-7.476-26.812c0-5.325,1.417-9.539,4.253-12.633c2.836-3.093,5.886-4.64,9.152-4.64
		c4.812,0,9.28,3.352,13.405,10.054c4.125,6.703,6.188,17.878,6.188,33.515c0,22.686-5.457,50.314-16.371,82.884
		c-10.914,32.572-26.124,57.232-45.632,73.989c-19.506,16.757-38.197,25.137-56.071,25.137c-15.125,0-27.37-5.544-36.737-16.629
		c-9.37-11.086-15.253-22.559-17.66-34.417c-16.5,17.015-32.397,29.819-47.694,38.413c-15.3,8.593-29.995,12.89-44.084,12.89
		c-14.269,0-25.05-4.382-32.354-13.147c-7.308-8.766-10.957-19.679-10.957-32.741c0-28.702,18.472-69.26,55.428-121.684
		c9.108-12.542,14.437-20.277,15.983-23.202c-7.391,4.125-14.351,6.188-20.882,6.188c-6.02,0-12.375-3.18-19.078-9.539
		c-2.926-2.921-5.504-4.383-7.734-4.383c-4.125,0-7.477,3.352-10.054,10.054L60.457,117.073z M208.952,202.921
		c14.608-19.592,25.565-37.596,32.87-54.009c7.304-16.41,10.956-31.152,10.956-44.214c0-5.324-0.73-9.32-2.19-11.988
		c-1.462-2.664-3.739-3.996-6.833-3.996c-6.874,0-14.479,8.597-22.815,25.78c-8.335,17.187-12.504,42.195-12.504,75.021
		C208.436,193.297,208.608,197.765,208.952,202.921z"/>
</g>
</svg>
