<?xml version="1.0" encoding="utf-8"?>
<!-- Generator: Adobe Illustrator 14.0.0, SVG Export Plug-In . SVG Version: 6.00 Build 43363)  -->
<!DOCTYPE svg PUBLIC "-//W3C//DTD SVG 1.1//EN" "http://www.w3.org/Graphics/SVG/1.1/DTD/svg11.dtd">
<svg version="1.1" id="Layer_1" xmlns="http://www.w3.org/2000/svg" xmlns:xlink="http://www.w3.org/1999/xlink" x="0px" y="0px"
	 width="400px" height="400px" viewBox="0 0 400 400" enable-background="new 0 0 400 400" xml:space="preserve">
<g>
	<path d="M272.908,67.871h61.254v263.988h-61.254v-27.647c-25.116,23.491-52.129,35.236-81.039,35.236
		c-36.5,0-66.674-13.188-90.525-39.572c-23.67-26.924-35.506-60.531-35.506-100.825c0-39.571,11.835-72.543,35.506-98.927
		c23.67-26.38,53.303-39.571,88.899-39.571c30.718,0,58.272,12.649,82.666,37.945V67.871z M128.176,199.051
		c0,25.299,6.775,45.898,20.327,61.795c13.914,16.086,31.44,24.123,52.581,24.123c22.586,0,40.836-7.768,54.749-23.31
		c13.913-16.08,20.869-36.495,20.869-61.253c0-24.755-6.956-45.169-20.869-61.254c-13.913-15.72-31.981-23.58-54.207-23.58
		c-20.96,0-38.487,7.954-52.581,23.851C135.132,155.509,128.176,175.381,128.176,199.051z"/>
</g>
</svg>
