<?xml version="1.0" encoding="utf-8"?>
<!-- Generator: Adobe Illustrator 14.0.0, SVG Export Plug-In . SVG Version: 6.00 Build 43363)  -->
<!DOCTYPE svg PUBLIC "-//W3C//DTD SVG 1.1//EN" "http://www.w3.org/Graphics/SVG/1.1/DTD/svg11.dtd">
<svg version="1.1" id="Layer_1" xmlns="http://www.w3.org/2000/svg" xmlns:xlink="http://www.w3.org/1999/xlink" x="0px" y="0px"
	 width="400px" height="400px" viewBox="0 0 400 400" enable-background="new 0 0 400 400" xml:space="preserve">
<g>
	<path d="M103.121,205.246c0-7.266,1.347-13.521,4.041-18.769c2.683-5.248,5.979-9.823,9.889-13.727
		c3.898-3.898,8.07-7.063,12.511-9.486s8.41-4.44,11.909-6.056c-15.61-10.762-23.412-25.293-23.412-43.597
		c0-9.417,2.283-17.896,6.866-25.433c4.566-7.531,10.354-13.927,17.357-19.175c6.992-5.248,14.729-9.215,23.209-11.908
		c8.481-2.686,16.618-4.038,24.425-4.038c12.111,0,22.537,2.423,31.286,7.268c8.738,4.843,15.134,9.284,19.175,13.322
		c2.956-5.111,7.325-9.823,13.118-14.129c5.782-4.303,12.977-6.46,21.595-6.46c5.377,0,10.359,1.149,14.937,3.433
		c4.566,2.289,6.855,7.203,6.855,14.734c0,4.843-1.544,8.479-4.633,10.898c-3.099,2.423-6.264,3.633-9.494,3.633
		c-3.767,0-6.46-1.07-8.07-3.228c-1.609-2.152-3.033-4.44-4.237-6.863c-1.216-2.423-2.497-4.706-3.833-6.863
		c-1.347-2.149-3.373-3.228-6.056-3.228c-2.694,0-5.453,1.147-8.278,3.43c-2.825,2.289-5.312,4.914-7.469,7.871
		c2.426,2.694,5.52,7.269,9.286,13.727s5.65,14.531,5.65,24.22c0,8.073-2.015,15.479-6.056,22.202
		c-4.029,6.732-9.352,12.653-15.944,17.762c-6.592,5.117-14.268,9.083-23.007,11.909c-8.749,2.828-17.696,4.241-26.845,4.241
		c-9.423,0-17.63-1.275-24.622-3.835c-7.003-2.554-12.385-4.774-16.152-6.661c-2.962,1.35-6.121,2.825-9.483,4.44
		c-3.373,1.615-6.461,3.633-9.286,6.056c-2.825,2.42-5.185,5.316-7.063,8.678c-1.884,3.368-2.826,7.203-2.826,11.503
		c0,4.038,0.805,7.406,2.42,10.094c1.615,2.694,3.696,4.712,6.258,6.056c2.557,1.35,5.448,2.289,8.678,2.825
		c3.23,0.542,6.592,0.808,10.091,0.808h63.782c18.835,0,33.837,4.509,45.012,13.524c11.164,9.015,16.749,23.207,16.749,42.589
		c0,11.838-2.562,22.603-7.665,32.293c-5.114,9.691-11.909,18.097-20.39,25.23c-8.477,7.129-18.233,12.648-29.266,16.547
		c-11.038,3.898-22.339,5.858-33.909,5.858c-10.496,0-20.122-1.216-28.866-3.636c-8.749-2.42-16.349-5.717-22.804-9.889
		c-6.461-4.178-11.503-9.221-15.139-15.139c-3.636-5.919-5.448-12.512-5.448-19.782c0-6.998,1.413-13.393,4.238-19.175
		c2.825-5.793,6.455-10.896,10.901-15.342c4.435-4.435,9.483-8.273,15.133-11.498c5.651-3.23,11.307-5.924,16.957-8.076v-0.805
		c-17.762,0-30.88-2.901-39.362-8.684C107.358,229.135,103.121,219.244,103.121,205.246z M163.671,243.601
		c-3.499,2.146-7.063,4.369-10.693,6.658c-3.636,2.283-6.866,5.18-9.691,8.678c-2.825,3.494-5.114,7.6-6.866,12.314
		c-1.752,4.703-2.617,10.557-2.617,17.559c0,9.687,1.676,17.691,5.043,24.021c3.362,6.318,7.671,11.433,12.916,15.342
		c5.246,3.898,11.104,6.658,17.565,8.268c6.455,1.621,12.779,2.431,18.966,2.431c9.691,0,18.507-1.489,26.445-4.445
		c7.934-2.968,14.794-6.932,20.587-11.909c5.782-4.982,10.229-10.693,13.321-17.153c3.094-6.461,4.644-13.19,4.644-20.183
		c0-15.079-4.106-25.777-12.314-32.096c-8.213-6.329-19.447-9.483-33.705-9.483H163.671z M229.068,112.399
		c0-6.187-0.399-12.442-1.21-18.77c-0.811-6.321-2.491-12.111-5.048-17.359c-2.562-5.248-6.461-9.486-11.707-12.716
		c-5.245-3.228-12.308-4.843-21.189-4.843c-13.727,0-24.091,4.175-31.088,12.514c-6.998,8.344-10.491,22.07-10.491,41.174
		c0,8.076,0.602,15.342,1.818,21.8c1.204,6.458,3.427,12.048,6.658,16.754c3.23,4.711,7.534,8.273,12.916,10.696
		s12.243,3.633,20.593,3.633c13.984,0,23.949-4.369,29.868-13.119C226.106,143.422,229.068,130.164,229.068,112.399z"/>
</g>
</svg>
