<?xml version="1.0" encoding="utf-8"?>
<!-- Generator: Adobe Illustrator 14.0.0, SVG Export Plug-In . SVG Version: 6.00 Build 43363)  -->
<!DOCTYPE svg PUBLIC "-//W3C//DTD SVG 1.1//EN" "http://www.w3.org/Graphics/SVG/1.1/DTD/svg11.dtd">
<svg version="1.1" id="Layer_1" xmlns="http://www.w3.org/2000/svg" xmlns:xlink="http://www.w3.org/1999/xlink" x="0px" y="0px"
	 width="400px" height="400px" viewBox="0 0 400 400" enable-background="new 0 0 400 400" xml:space="preserve">
<g>
	<path d="M66.024,347.191c0.15-2.299,0.766-4.366,1.838-6.205c11.95-3.218,23.59-5.366,34.931-6.438
		c7.503-0.617,12.33-2.302,14.478-5.063c1.529-1.99,2.449-9.351,2.758-22.08l1.609-60.717l-0.229-41.171l0.229-53.816v-14.261
		c0.15-32.352-0.003-52.514-0.463-60.49c-0.156-1.532-0.769-3.68-1.844-6.441c-4.006-1.838-7.354-3.06-10.047-3.677
		c-2.694-0.612-14.74-2.834-36.134-6.671c-0.153-1.685-0.229-2.907-0.229-3.677c0-0.919,0.076-2.145,0.229-3.677
		c2.917,0,7.673,0.175,14.273,0.523l34.985,1.315l20.255,0.459l5.988-0.229c0.766,0,2.987,0.153,6.677,0.46
		c9.052,0,14.273-0.077,15.652-0.23l18.41-1.379c12.436,0,21.18,0.23,26.237,0.69c-0.152,2.757-0.689,5.745-1.607,8.962
		c-1.686,0.31-9.654,0.728-23.902,1.264c-14.248,0.54-22.444,1.417-24.589,2.643c-3.523,1.992-5.286,8.124-5.286,18.385
		c0,2.451-0.153,7.434-0.459,14.938v13.788l0.229,42.514v14.478l0.459,76.066l-0.689,64.807l0.229,14.247
		c0,4.596,0.766,7.435,2.298,8.504c3.83,0.153,15.091,0.309,33.781,0.46h15.626l39.758-1.38c10.42-0.307,17.85-1.34,22.291-3.103
		c4.443-1.759,11.875-6.929,22.293-15.512c6.279-5.516,11.184-11.181,14.707-17.006c0.766-1.227,2.068-3.064,3.906-5.516
		c2.912-3.983,6.818-11.949,11.721-23.898h7.584c-0.92,5.515-1.914,10.723-2.986,15.626c-4.445,21.602-7.508,39.606-9.195,54.004
		c-0.305,3.068-0.611,5.898-0.918,8.504l-85.947-2.528c-73.845,0-117.659,0.688-131.448,2.068c-4.289,0.307-8.812,0.46-13.558,0.46
		H66.024z"/>
</g>
</svg>
