<?xml version="1.0" encoding="utf-8"?>
<!-- Generator: Adobe Illustrator 14.0.0, SVG Export Plug-In . SVG Version: 6.00 Build 43363)  -->
<!DOCTYPE svg PUBLIC "-//W3C//DTD SVG 1.1//EN" "http://www.w3.org/Graphics/SVG/1.1/DTD/svg11.dtd">
<svg version="1.1" id="Layer_1" xmlns="http://www.w3.org/2000/svg" xmlns:xlink="http://www.w3.org/1999/xlink" x="0px" y="0px"
	 width="400px" height="400px" viewBox="0 0 400 400" enable-background="new 0 0 400 400" xml:space="preserve">
<g>
	<path d="M112.875,52.892h35.929v109.382c8.516-10.778,16.165-18.363,22.951-22.754c11.577-7.585,26.015-11.377,43.313-11.377
		c31.006,0,52.03,10.848,63.075,32.535c5.988,11.846,8.981,28.277,8.981,49.302v137.128h-36.926V212.375
		c0-15.7-1.996-27.212-5.988-34.531c-6.521-11.708-18.763-17.565-36.727-17.565c-14.904,0-28.411,5.123-40.52,15.369
		c-12.106,10.249-18.161,29.61-18.161,58.084v113.375h-35.929V52.892z"/>
</g>
</svg>
