<?xml version="1.0" encoding="utf-8"?>
<!-- Generator: Adobe Illustrator 14.0.0, SVG Export Plug-In . SVG Version: 6.00 Build 43363)  -->
<!DOCTYPE svg PUBLIC "-//W3C//DTD SVG 1.1//EN" "http://www.w3.org/Graphics/SVG/1.1/DTD/svg11.dtd">
<svg version="1.1" id="Layer_1" xmlns="http://www.w3.org/2000/svg" xmlns:xlink="http://www.w3.org/1999/xlink" x="0px" y="0px"
	 width="400px" height="400px" viewBox="0 0 400 400" enable-background="new 0 0 400 400" xml:space="preserve">
<g>
	<path d="M251.594,71.183c13.665,11.629,20.498,27.782,20.498,48.467c0,17.575-10.269,39.412-30.807,65.501
		c-22.414,28.39-35.567,55.363-39.46,80.914h-7.301c0-4.996,0.732-12.066,2.203-21.191c1.464-9.125,3.267-17.137,5.407-24.031
		c2.135-6.895,7.537-20.346,16.212-40.355c4.405-10.14,8.112-20.31,11.114-30.52c3.002-10.207,4.507-19.569,4.507-28.086
		c0-14.466-3.69-27.377-11.075-38.733c-7.385-11.356-18.994-17.035-34.835-17.035c-10.872,0-20.031,2.94-27.478,8.821
		c-7.453,5.881-11.176,11.458-11.176,16.73c0,2.974,2.769,7.604,8.314,13.891c5.543,6.287,8.314,12.136,8.314,17.542
		c0,4.461-1.656,8.385-4.968,11.762c-3.315,3.38-7.334,5.07-12.066,5.07c-5.408,0-10.274-2.332-14.601-6.997
		c-4.329-4.664-6.489-11.525-6.489-20.583c0-13.922,5.988-27.174,17.972-39.747c11.981-12.573,29.954-18.859,53.917-18.859
		C220.668,53.743,237.934,59.556,251.594,71.183z M214.263,331.566c-4.478,4.326-9.778,6.488-15.885,6.488
		c-6.383,0-11.751-2.129-16.094-6.387c-4.349-4.26-6.518-9.498-6.518-15.717c0-6.213,2.242-11.457,6.72-15.717
		c4.478-4.258,9.644-6.387,15.485-6.387c6.247,0,11.644,2.162,16.189,6.488c4.552,4.332,6.828,9.531,6.828,15.615
		S218.747,327.24,214.263,331.566z"/>
</g>
</svg>
